<svg xmlns="http://www.w3.org/2000/svg" width="256" height="256" viewBox="0 0 256 256">
  <g fill="none" fill-rule="evenodd">
    <path fill="#FF5A42" d="M0.762207913,230.560329 L62.3097733,14.5052751 C65.3305387,3.90125473 76.3756098,-2.246188 86.9796301,0.77457742 C90.2480585,1.70565404 93.2247027,3.45567186 95.6276389,5.85888332 L249.160838,159.40967 C256.956874,167.206599 256.95615,179.847194 249.159221,187.64323 C246.781899,190.020279 243.8428,191.758493 240.614509,192.696662 L25.5337439,255.200929 C14.9458816,258.27785 3.86838595,252.189029 0.791464733,241.601167 C-0.255990455,237.996814 -0.266130542,234.170183 0.762207913,230.560329 Z"/>
    <path fill="#FFF" d="M143.098159,83.4464622 L143.157247,83.59626 L185.210206,202.267388 C185.427718,202.881198 185.416421,203.552884 185.17839,204.159032 C184.653495,205.49568 183.182269,206.179836 181.834068,205.745191 L181.672943,205.687634 L170.667375,201.366829 C171.380714,205.172927 172.742352,208.790748 174.576173,212.212475 C175.668757,214.38704 176.215049,216.833425 175.668757,219.551631 C174.849319,224.444401 171.29842,228.249889 166.38179,229.337171 C158.7337,230.968095 151.905048,225.259863 151.905048,217.648887 C151.905048,216.017963 152.178194,214.38704 152.997632,212.756116 C155.272,207.475012 157.07877,201.961244 157.552729,196.214812 L141.182515,189.7849 C141.898551,192.973341 143.310616,197.155301 144.256958,199.980549 C144.80325,201.339652 144.80325,202.698755 144.530104,204.057858 C143.983812,207.319705 141.252351,210.03791 137.701452,210.853372 C132.23853,211.940654 127.595047,207.591525 127.595047,202.426934 C127.595047,201.339652 127.868193,200.25237 128.141339,199.165087 C129.578463,195.82807 130.729176,190.048787 131.359069,185.92718 L64.1109165,159.521628 C64.0691313,159.505219 64.0278457,159.487565 63.987115,159.46869 C62.8579185,158.945406 62.3667298,157.605805 62.8900223,156.476612 C70.1389132,140.834217 80.6346167,126.372617 94.3771328,113.09181 C108.149066,99.7825748 123.403149,89.5120928 140.139381,82.2803644 C140.185797,82.2603077 140.232876,82.241819 140.280537,82.2249297 C141.402595,81.827311 142.629759,82.3717637 143.098159,83.4464622 Z M156.171572,159.624718 C151.487319,159.624718 147.689982,163.42249 147.689982,168.107279 C147.689982,172.792068 151.487319,176.58984 156.171572,176.58984 C160.855824,176.58984 164.653161,172.792068 164.653161,168.107279 C164.653161,163.42249 160.855824,159.624718 156.171572,159.624718 Z M116.429266,141.205442 C109.335969,141.205442 103.585716,146.956354 103.585716,154.050463 C103.585716,161.144572 109.335969,166.895484 116.429266,166.895484 C123.522563,166.895484 129.272816,161.144572 129.272816,154.050463 C129.272816,146.956354 123.522563,141.205442 116.429266,141.205442 Z M128.02266,60.3040665 C132.012058,58.4088852 136.782277,60.106954 138.677241,64.0968093 C140.572205,68.0866646 138.874331,72.8574293 134.884932,74.7526106 C116.215963,83.6213868 100.669183,93.9097379 88.2170605,105.59455 C75.8350247,117.213593 64.9044524,132.225605 55.4506457,150.67039 C53.4359568,154.601135 48.6165954,156.154218 44.6863006,154.139298 C40.7560059,152.124379 39.2031005,147.304465 41.2177894,143.37372 C51.4735816,123.364227 63.4836899,106.869584 77.2734164,93.9295928 C90.993056,81.05537 107.918648,69.8545661 128.02266,60.3040665 Z M135.273454,135.657222 C134.616961,137.460921 135.381754,139.101095 137.185271,139.757597 C140.601123,140.660563 142.212355,144.651521 141.008906,147.958347 C140.461884,149.46145 141.117182,151.402287 142.920723,152.058723 C144.423674,152.605752 146.364136,151.950385 147.020629,150.146686 C149.427526,143.533033 145.986255,136.152358 139.37336,133.745185 C137.870409,133.198156 135.929947,133.853522 135.273454,135.657222 Z M105.914216,125.095502 L100.193319,129.877015 C98.8052194,131.190058 98.6917387,133.097533 99.5158837,134.658122 C100.340029,136.21871 102.870928,136.614864 104.259028,135.301821 L109.979924,130.520309 C111.368024,129.207266 111.481505,127.29979 110.65736,125.739201 C109.364402,124.352057 107.470812,124.253119 105.914216,125.095502 Z M129.030485,108.244632 C124.346232,108.244632 120.548895,112.042404 120.548895,116.727194 C120.548895,121.411983 124.346232,125.209755 129.030485,125.209755 C133.714737,125.209755 137.512075,121.411983 137.512075,116.727194 C137.512075,112.042404 133.714737,108.244632 129.030485,108.244632 Z" transform="matrix(-1 0 0 1 225.7 0)"/>
  </g>
</svg>
