<svg xmlns="http://www.w3.org/2000/svg" width="256" height="256" viewBox="0 0 256 256">
  <path fill="#FFF" fill-rule="evenodd" d="M83.4865518,35.6736124 L83.4274664,35.8234139 L19.2552278,216.913931 C19.037715,217.527741 19.0490119,218.199428 19.287043,218.805575 C19.811938,220.142224 21.2831638,220.826379 22.6313652,220.391735 L22.7924904,220.334177 L41.9494308,212.812418 C40.8841961,218.496405 38.8507668,223.899212 36.1121672,229.009168 C34.4805654,232.256537 33.6647645,235.909826 34.4805654,239.969036 C35.7042668,247.275614 41.0069725,252.958508 48.3491805,254.582193 C59.770393,257.017719 69.9679041,248.493377 69.9679041,237.127589 C69.9679041,234.692063 69.5600036,232.256537 68.3363023,229.82101 C64.9400791,221.934945 62.2420614,213.701471 61.5341012,205.120589 L85.9798321,195.519263 C84.9103951,200.280427 82.8021173,206.524291 81.3891165,210.742723 C80.5733156,212.772328 80.5733156,214.801933 80.9812161,216.831538 C81.797017,221.70259 85.8760214,225.7618 91.1787272,226.979563 C99.3367361,228.603247 106.271044,222.108511 106.271044,214.396012 C106.271044,212.772328 105.863143,211.148644 105.455243,209.524959 C103.309432,204.542364 101.591208,195.913672 100.650474,189.758875 L202.169706,149.893663 C202.207171,149.878951 202.244235,149.863237 202.280858,149.84654 C203.413257,149.330245 203.912709,147.993713 203.39642,146.861311 C192.556228,123.085307 176.716335,101.127583 155.876741,80.9881413 C135.008112,60.8206386 111.860553,45.3254744 86.4340668,34.5026487 C86.3913062,34.4844476 86.3479928,34.4675736 86.3041887,34.452051 C85.1821134,34.0544261 83.9549305,34.5988872 83.4865518,35.6736124 Z M63.5965259,150.477675 C70.5917159,150.477675 76.2624379,156.149046 76.2624379,163.145037 C76.2624379,170.141029 70.5917159,175.8124 63.5965259,175.8124 C56.6013359,175.8124 50.930614,170.141029 50.930614,163.145037 C50.930614,156.149046 56.6013359,150.477675 63.5965259,150.477675 Z M122.94537,122.971401 C133.538087,122.971401 142.12518,131.559478 142.12518,142.153408 C142.12518,152.747337 133.538087,161.335414 122.94537,161.335414 C112.352654,161.335414 103.765561,152.747337 103.765561,142.153408 C103.765561,131.559478 112.352654,122.971401 122.94537,122.971401 Z M105.632471,2.15799969 C99.674936,-0.672153616 92.5513699,1.86364343 89.7215407,7.8218609 C86.8917116,13.7800784 89.4272182,20.9044605 95.3847532,23.7346138 C123.263904,36.9787276 146.48056,52.3427519 165.075835,69.7921689 C183.566446,87.1433715 199.889526,109.561436 214.00729,137.105803 C217.015909,142.975749 224.212863,145.295033 230.082136,142.286069 C235.951409,139.277106 238.270427,132.079327 235.261808,126.209382 C219.946406,96.3283708 202.01121,71.6962309 181.418435,52.3724021 C160.930325,33.1467876 135.654632,16.4201595 105.632471,2.15799969 Z M94.8045577,114.686012 C95.7849259,117.379552 94.642828,119.828893 91.949561,120.809274 C86.8485266,122.15771 84.4424077,128.117575 86.2395676,133.055797 C87.0564585,135.300443 86.0778741,138.198776 83.3845709,139.179058 C81.1401516,139.99596 78.242379,139.017274 77.2620108,136.323735 C73.667691,126.447291 78.806685,115.42542 88.6819975,111.830689 C90.9264168,111.013787 93.8241895,111.992473 94.8045577,114.686012 Z M138.647934,98.913756 L147.191187,106.054188 C149.264095,108.01501 149.43356,110.863523 148.20283,113.194015 C146.9721,115.524507 143.192602,116.116099 141.119695,114.155277 L132.576441,107.014846 C130.503534,105.054024 130.334068,102.20551 131.564798,99.8750184 C133.495626,97.8035373 136.323403,97.6557903 138.647934,98.913756 Z M104.127444,73.7496483 C111.122634,73.7496483 116.793356,79.4210198 116.793356,86.4170111 C116.793356,93.4130024 111.122634,99.0843739 104.127444,99.0843739 C97.1322541,99.0843739 91.4615322,93.4130024 91.4615322,86.4170111 C91.4615322,79.4210198 97.1322541,73.7496483 104.127444,73.7496483 Z"/>
</svg>
