<svg xmlns="http://www.w3.org/2000/svg" width="84" height="84" viewBox="0 0 84 84">
  <path fill-rule="evenodd" d="M78.6380235,35.8733041 L69.6881406,40.9667792 C67.5826476,38.177773 65.1059027,35.6911333 62.3325683,33.5824192 L66.8667153,25.9205231 C71.3677562,28.5285288 75.3537682,31.9074767 78.6380235,35.8733041 Z M7.51514559,40.4325287 C9.31998119,37.5631954 11.4568364,34.9180695 13.872818,32.5492891 L15.846581,34.5477248 C13.3987164,36.5722572 11.2068783,38.9019122 9.32773758,41.479338 L7.51514559,40.4325287 Z M6.99493969,41.281184 L8.74955725,42.2945119 C6.96031268,44.8882545 5.48130388,47.7174242 4.36698137,50.7269162 L2.9223055,50.3636359 C3.92767718,47.1605385 5.30149346,44.1170152 6.99493969,41.281184 Z M14.5939896,31.8581804 C17.1254903,29.4870491 19.9446317,27.4114901 22.9944978,25.6876072 L24.9426044,28.9795584 C21.9538393,30.2665418 19.1628434,31.9326392 16.6285676,33.9181913 L14.5939896,31.8581804 Z M23.8728965,25.2042699 C26.8384502,23.6163625 30.0110741,22.3565921 33.340618,21.4743931 L34.642832,26.2880052 C31.5903764,26.7017949 28.6535237,27.4850676 25.8776303,28.5919109 L23.8728965,25.2042699 Z M34.3149509,21.2281228 C37.579591,20.4425548 40.9878119,20.0180599 44.4935948,20 L44.2843193,26.2274518 C42.7810497,26.0430388 41.2505169,25.9481215 39.6980783,25.9481215 C38.3307024,25.9481215 36.980321,26.0217579 35.6505948,26.1653259 L34.3149509,21.2281228 Z M45.4997531,20.0059881 C48.9936152,20.0656253 52.3876549,20.5289568 55.6359237,21.35069 L53.6570584,28.6474708 C51.001946,27.5764192 48.198311,26.8018405 45.2860852,26.3641464 L45.4997531,20.0059873 Z M56.6072002,21.6082538 C59.9110677,22.5249573 63.0564926,23.8145211 65.9937778,25.4279574 L61.5226254,32.9834038 C59.3690211,31.4345453 57.0478027,30.108794 54.5918804,29.0394555 L56.6072002,21.6082538 Z M2.63596369,51.3148378 L4.03308402,51.6661597 C2.95678658,54.8237537 2.2783862,58.1689781 2.05852841,61.6404588 L1,61.6404588 C1.12268754,58.0715908 1.6852624,54.6127124 2.63596369,51.3148378 Z M47.7929316,63.3935658 C47.5370179,63.6542742 47.2475446,63.8963925 46.9268097,64.1127309 C44.8840265,65.4906056 42.3466772,65.300944 41.2594814,63.6891099 C40.1722856,62.0772758 40.9469422,59.653638 42.9897253,58.2757633 C43.3104602,58.0594249 43.643387,57.8817291 43.9809786,57.742113 L43.9138295,57.6425604 L83.692185,35.0580031 L47.8509139,63.479528 L47.7929316,63.3935658 Z"/>
</svg>
